<svg xmlns="http://www.w3.org/2000/svg" viewBox="0 0 1920 1080">
  <defs>
    <linearGradient id="bgA" x1="0" y1="0" x2="1" y2="1">
      <stop offset="0%" stop-color="#1B4965"/>
      <stop offset="60%" stop-color="#0F5E73"/>
      <stop offset="100%" stop-color="#082C39"/>
    </linearGradient>
    <linearGradient id="diagGoldA" x1="0" y1="0" x2="1" y2="1">
      <stop offset="0%" stop-color="#E3B32F" stop-opacity=".9"/>
      <stop offset="100%" stop-color="#FFB500" stop-opacity=".55"/>
    </linearGradient>
    <linearGradient id="diagGreenA" x1="0" y1="0" x2="1" y2="1">
      <stop offset="0%" stop-color="#2CA01C" stop-opacity=".9"/>
      <stop offset="100%" stop-color="#238315" stop-opacity=".55"/>
    </linearGradient>
    <linearGradient id="panelA" x1="0" y1="0" x2="1" y2="0">
      <stop offset="0%" stop-color="#FFFFFF" stop-opacity=".16"/>
      <stop offset="100%" stop-color="#FFFFFF" stop-opacity=".05"/>
    </linearGradient>
  </defs>
  <rect width="1920" height="1080" fill="url(#bgA)"/>
  <polygon points="-240,0 920,0 640,1080 -240,1080" fill="url(#diagGreenA)" opacity=".93"/>
  <polygon points="520,-120 1940,-120 1920,1180 360,1180" fill="url(#diagGoldA)" opacity=".9"/>
  <!-- Gear chain (automation) -->
  <g transform="translate(1220 340)" opacity=".72">
    <g fill="#FFFFFF" fill-opacity=".14" stroke="#FFFFFF" stroke-opacity=".35" stroke-width="6">
      <circle cx="0" cy="0" r="120"/>
      <circle cx="210" cy="130" r="70"/>
      <circle cx="-190" cy="150" r="90"/>
    </g>
    <!-- Teeth representation -->
    <g stroke="#E3B32F" stroke-width="10" stroke-linecap="round" opacity=".65">
      <path d="M0 -120 L0 -150"/>
      <path d="M84 -84 L106 -106"/>
      <path d="M120 0 L150 0"/>
      <path d="M84 84 L106 106"/>
      <path d="M0 120 L0 150"/>
      <path d="M-84 84 L-106 106"/>
      <path d="M-120 0 L-150 0"/>
      <path d="M-84 -84 L-106 -106"/>
    </g>
    <!-- Flow arrows -->
    <g stroke="#2CA01C" stroke-width="14" stroke-linecap="round" stroke-linejoin="round" opacity=".75">
      <path d="M-60 -190 Q20 -240 100 -190"/>
      <path d="M140 160 Q220 210 260 150"/>
    </g>
  </g>
  <!-- Workflow panels -->
  <g transform="translate(370 300)" opacity=".6">
    <rect x="0" y="0" width="520" height="340" rx="34" fill="url(#panelA)" stroke="#FFFFFF" stroke-opacity=".15"/>
    <rect x="50" y="60" width="160" height="30" rx="8" fill="#2CA01C" opacity=".75"/>
    <rect x="230" y="60" width="100" height="30" rx="8" fill="#E3B32F" opacity=".8"/>
    <rect x="50" y="110" width="300" height="16" rx="6" fill="#FFFFFF" opacity=".35"/>
    <rect x="50" y="140" width="220" height="16" rx="6" fill="#FFFFFF" opacity=".25"/>
    <!-- Step cards -->
    <g transform="translate(50 190)">
      <rect width="110" height="90" rx="14" fill="#E3B32F" opacity=".8"/>
      <rect x="130" width="110" height="90" rx="14" fill="#2CA01C" opacity=".75"/>
      <rect x="260" width="110" height="90" rx="14" fill="#E3B32F" opacity=".8"/>
      <rect x="390" width="80" height="90" rx="14" fill="#FFFFFF" fill-opacity=".12"/>
    </g>
    <polyline points="105,235 170,235 235,235 295,235 360,235" fill="none" stroke="#FFFFFF" stroke-width="8" stroke-linecap="round" opacity=".45"/>
  </g>
  <rect width="1920" height="1080" fill="#FFFFFF" opacity=".035"/>
</svg>
