<svg xmlns="http://www.w3.org/2000/svg" viewBox="0 0 1920 1080">
  <defs>
    <linearGradient id="bg1" x1="0" y1="0" x2="1" y2="1">
      <stop offset="0%" stop-color="#1B4965"/>
      <stop offset="55%" stop-color="#0F5E73"/>
      <stop offset="100%" stop-color="#0A3242"/>
    </linearGradient>
    <linearGradient id="panelGrad" x1="0" y1="0" x2="1" y2="0">
      <stop offset="0%" stop-color="#FFFFFF" stop-opacity=".14"/>
      <stop offset="100%" stop-color="#FFFFFF" stop-opacity=".02"/>
    </linearGradient>
    <linearGradient id="accentDiag" x1="0" y1="0" x2="1" y2="1">
      <stop offset="0%" stop-color="#E3B32F" stop-opacity=".85"/>
      <stop offset="100%" stop-color="#FFB500" stop-opacity=".55"/>
    </linearGradient>
    <linearGradient id="greenDiag" x1="0" y1="0" x2="1" y2="1">
      <stop offset="0%" stop-color="#2CA01C" stop-opacity=".85"/>
      <stop offset="100%" stop-color="#238315" stop-opacity=".55"/>
    </linearGradient>
    <clipPath id="maskDiag1">
      <polygon points="-200,0 980,0 740,1080 -200,1080"/>
    </clipPath>
    <clipPath id="maskDiag2">
      <polygon points="600,-80 1820,-80 1920,1160 360,1160"/>
    </clipPath>
    <filter id="softBlur" x="-10%" y="-10%" width="120%" height="120%">
      <feGaussianBlur stdDeviation="40"/>
    </filter>
  </defs>

  <rect width="1920" height="1080" fill="url(#bg1)"/>
  <g clip-path="url(#maskDiag1)">
    <rect x="-200" y="-50" width="1400" height="1200" fill="url(#greenDiag)" opacity=".92"/>
  </g>
  <g clip-path="url(#maskDiag2)">
    <rect x="360" y="-120" width="1600" height="1400" fill="url(#accentDiag)" opacity=".9"/>
  </g>

  <g opacity=".23">
    <circle cx="1550" cy="260" r="140" stroke="#FFFFFF" stroke-width="2" fill="none" />
    <circle cx="1550" cy="260" r="100" stroke="#FFFFFF" stroke-width="2" fill="none" />
    <circle cx="1380" cy="860" r="110" stroke="#FFFFFF" stroke-width="1.5" fill="none" />
  </g>

  <g opacity=".55">
    <rect x="1080" y="320" rx="22" ry="22" width="420" height="250" fill="url(#panelGrad)" stroke="#FFFFFF" stroke-opacity=".15"/>
    <rect x="1130" y="370" width="150" height="26" rx="6" fill="#E3B32F" opacity=".55"/>
    <rect x="1130" y="410" width="250" height="14" rx="4" fill="#FFFFFF" opacity=".35"/>
    <rect x="1130" y="435" width="190" height="14" rx="4" fill="#FFFFFF" opacity=".25"/>
    <g transform="translate(1130 470)">
      <rect width="36" height="90" rx="6" fill="#2CA01C" opacity=".7"/>
      <rect x="50" width="36" height="60" rx="6" fill="#E3B32F" opacity=".75"/>
      <rect x="100" width="36" height="120" rx="6" fill="#2CA01C" opacity=".7"/>
      <rect x="150" width="36" height="75" rx="6" fill="#E3B32F" opacity=".75"/>
      <rect x="200" width="36" height="105" rx="6" fill="#2CA01C" opacity=".7"/>
    </g>
    <polyline points="1090,620 1140,590 1190,605 1240,560 1290,575 1340,530 1390,550"
              fill="none" stroke="#FFFFFF" stroke-width="4" stroke-linecap="round" stroke-linejoin="round" opacity=".35"/>
  </g>

  <g transform="translate(330 300)">
    <rect width="320" height="320" rx="28" fill="#FFFFFF" fill-opacity=".08" stroke="#FFFFFF" stroke-opacity=".1"/>
    <rect x="30" y="60" width="260" height="200" rx="14" fill="#FFFFFF" fill-opacity=".07"/>
    <rect x="30" y="30" width="260" height="36" rx="10" fill="#2CA01C" fill-opacity=".65"/>
    <g fill="#FFFFFF" fill-opacity=".55">
      <rect x="60" y="100" width="40" height="40" rx="8"/>
      <rect x="120" y="100" width="40" height="40" rx="8"/>
      <rect x="180" y="100" width="40" height="40" rx="8"/>
      <rect x="60" y="160" width="40" height="40" rx="8"/>
      <rect x="120" y="160" width="40" height="40" rx="8"/>
      <rect x="180" y="160" width="40" height="40" rx="8"/>
      <rect x="60" y="220" width="40" height="40" rx="8"/>
      <rect x="120" y="220" width="40" height="40" rx="8"/>
      <rect x="180" y="220" width="40" height="40" rx="8"/>
    </g>
    <path d="M86 128l18 18 30 -38" fill="none" stroke="#2CA01C" stroke-width="8" stroke-linecap="round" stroke-linejoin="round" filter="url(#softBlur)"/>
    <path d="M86 128l18 18 30 -38" fill="none" stroke="#FFFFFF" stroke-width="5" stroke-linecap="round" stroke-linejoin="round"/>
  </g>

  <rect width="1920" height="1080" fill="#FFFFFF" opacity=".04"/>
</svg>
