<svg xmlns="http://www.w3.org/2000/svg" viewBox="0 0 1920 1080">
  <defs>
    <linearGradient id="bgK" x1="0" y1="0" x2="1" y2="1">
      <stop offset="0%" stop-color="#1B4965"/>
      <stop offset="55%" stop-color="#0F5E73"/>
      <stop offset="100%" stop-color="#082B36"/>
    </linearGradient>
    <linearGradient id="diagGoldK" x1="0" y1="0" x2="1" y2="1">
      <stop offset="0%" stop-color="#E3B32F" stop-opacity=".9"/>
      <stop offset="100%" stop-color="#FFB500" stop-opacity=".55"/>
    </linearGradient>
    <linearGradient id="diagGreenK" x1="0" y1="0" x2="1" y2="1">
      <stop offset="0%" stop-color="#2CA01C" stop-opacity=".9"/>
      <stop offset="100%" stop-color="#238315" stop-opacity=".55"/>
    </linearGradient>
    <linearGradient id="gradLineK" x1="0" y1="0" x2="1" y2="0">
      <stop offset="0%" stop-color="#2CA01C"/>
      <stop offset="100%" stop-color="#E3B32F"/>
    </linearGradient>
    <linearGradient id="panelK" x1="0" y1="0" x2="1" y2="0">
      <stop offset="0%" stop-color="#FFFFFF" stop-opacity=".18"/>
      <stop offset="100%" stop-color="#FFFFFF" stop-opacity=".05"/>
    </linearGradient>
    <radialGradient id="spotlight" cx=".5" cy=".4" r=".7">
      <stop offset="0%" stop-color="#FFFFFF" stop-opacity=".35"/>
      <stop offset="55%" stop-color="#FFFFFF" stop-opacity=".08"/>
      <stop offset="100%" stop-color="#FFFFFF" stop-opacity="0"/>
    </radialGradient>
  </defs>
  <rect width="1920" height="1080" fill="url(#bgK)"/>
  <polygon points="-240,0 920,0 640,1080 -240,1080" fill="url(#diagGreenK)" opacity=".92"/>
  <polygon points="520,-120 1940,-120 1920,1180 360,1180" fill="url(#diagGoldK)" opacity=".9"/>
  <!-- KPI panel -->
  <g transform="translate(1180 310)" opacity=".75">
    <rect width="500" height="360" rx="38" fill="url(#panelK)" stroke="#FFFFFF" stroke-opacity=".15"/>
    <rect x="50" y="60" width="180" height="34" rx="10" fill="#2CA01C" opacity=".85"/>
    <rect x="250" y="60" width="120" height="34" rx="10" fill="#E3B32F" opacity=".85"/>
    <!-- Gradient main line -->
    <polyline points="50,200 110,170 170,182 230,140 290,156 350,118 410,134 470,100"
      fill="none" stroke="url(#gradLineK)" stroke-width="12" stroke-linecap="round" stroke-linejoin="round" opacity=".9"/>
    <!-- Secondary faint line -->
    <polyline points="50,240 110,252 170,230 230,245 290,220 350,236 410,216 470,228"
      fill="none" stroke="#FFFFFF" stroke-width="6" stroke-linecap="round" stroke-linejoin="round" opacity=".35"/>
    <!-- KPI mini cards -->
    <g transform="translate(50 250)">
      <rect width="120" height="70" rx="14" fill="#E3B32F" opacity=".85"/>
      <rect x="140" width="120" height="70" rx="14" fill="#2CA01C" opacity=".8"/>
      <rect x="280" width="120" height="70" rx="14" fill="#FFFFFF" fill-opacity=".15"/>
      <rect x="420" width="40" height="70" rx="14" fill="#2CA01C" opacity=".7"/>
    </g>
  </g>
  <!-- Spotlight effect -->
  <circle cx="1180" cy="310" r="640" fill="url(#spotlight)" opacity=".55"/>
  <!-- Spark points -->
  <g stroke="#FFFFFF" stroke-width="5" stroke-linecap="round" opacity=".55">
    <line x1="1320" y1="360" x2="1320" y2="390"/>
    <line x1="1305" y1="375" x2="1335" y2="375"/>
    <line x1="1500" y1="520" x2="1500" y2="545"/>
    <line x1="1487" y1="533" x2="1513" y2="533"/>
    <line x1="1080" y1="590" x2="1080" y2="615"/>
    <line x1="1067" y1="603" x2="1093" y2="603"/>
  </g>
  <rect width="1920" height="1080" fill="#FFFFFF" opacity=".03"/>
</svg>
